<?xml version="1.0" encoding="UTF-8"?>
<!DOCTYPE svg PUBLIC "-//W3C//DTD SVG 1.1//EN" "http://www.w3.org/Graphics/SVG/1.1/DTD/svg11.dtd">
<svg version="1.1" xmlns="http://www.w3.org/2000/svg" xmlns:xlink="http://www.w3.org/1999/xlink" x="0" y="0" width="700" height="150" viewBox="0, 0, 700, 150">
  <defs>
    <clipPath id="Clip_1">
      <path d="M54.36,49.337 L184.129,49.337 L184.129,132.906 L54.36,132.906 z"/>
    </clipPath>
  </defs>
  <g id="Layer_1">
    <g>
      <path d="M146.127,84.841 C151.035,87.096 151.668,91.61 152.362,96.011 C153.297,101.941 153.309,107.998 154.754,113.858 C154.847,114.234 154.939,114.851 154.939,114.851 C154.939,114.851 154.347,114.85 153.942,114.85 C149.414,114.843 144.886,114.812 140.359,114.871 C139.88,114.878 139.276,114.895 139.276,114.895 C139.276,114.895 139,113.883 138.884,113.462 C137.799,109.526 137.214,105.506 136.843,101.446 C136.678,99.647 136.473,97.842 136.124,96.073 C135.246,91.631 133.498,90.141 129.048,89.861 C125.42,89.634 125.447,89.638 124.824,93.18 C123.65,99.856 122.423,106.524 121.266,113.204 C121.168,113.771 120.897,114.895 120.897,114.895 C120.897,114.895 120.006,114.904 119.294,114.886 C115.157,114.783 111.013,114.773 106.876,114.886 C106.136,114.907 105.012,114.899 105.012,114.899 C105.012,114.899 105.232,113.786 105.382,113.022 C108.334,97.942 111.226,82.851 114.134,67.762 C115.111,62.69 116.111,57.622 117.038,52.541 C117.22,51.539 117.512,50.908 118.625,50.738 C128.126,49.287 137.628,48.575 147.148,50.547 C148.092,50.742 149.029,51.018 149.933,51.354 C155.604,53.461 160.2,56.714 161.301,63.137 C162.508,70.18 160.164,75.979 154.593,80.458 C152.098,82.464 149.185,83.698 146.127,84.841" fill="#294682"/>
      <path d="M80.422,113.517 C73.364,113.45 67.554,112.483 62.062,109.923 C61.35,109.591 59.867,108.822 59.867,108.822 C59.867,108.822 60.4,107.685 60.759,106.832 C61.936,104.044 62.929,101.162 63.757,98.251 C63.999,97.404 64.526,95.861 64.526,95.861 C64.526,95.861 65.683,96.404 66.696,96.879 C71.168,98.976 75.902,100.255 80.901,100.27 C82.473,100.275 83.976,99.971 85.378,99.214 C88.538,97.508 89.216,93.902 86.857,91.209 C85.38,89.522 83.469,88.44 81.499,87.451 C78.954,86.175 76.508,84.749 74.248,82.999 C65.03,75.86 66.828,65.401 71.384,59.191 C74.576,54.841 79.015,52.299 84.129,50.898 C92.334,48.652 100.47,48.951 108.531,51.698 C109.385,51.989 110.597,52.505 110.597,52.505 C110.597,52.505 110.102,53.745 109.825,54.458 C108.587,57.636 107.592,60.914 106.587,64.178 C106.428,64.693 106.185,65.427 106.185,65.427 C106.185,65.427 105.361,65.189 104.826,64.975 C100.695,63.32 96.405,62.553 91.939,62.962 C90.761,63.07 89.651,63.398 88.624,63.955 C85.583,65.602 85.094,68.953 87.556,71.377 C89.047,72.846 90.878,73.819 92.753,74.708 C95.21,75.873 97.514,77.285 99.75,78.837 C111.112,86.723 107.748,100.542 101.005,106.544 C96.693,110.382 91.528,112.204 85.943,113.06 C83.769,113.393 81.579,113.609 80.422,113.517" fill="#294682"/>
    </g>
    <path d="M180.805,67.328 C179.504,74.639 178.209,81.951 176.902,89.261 C175.527,96.953 174.107,104.637 172.793,112.339 C172.702,112.867 172.567,113.779 172.481,114.113 C172.481,114.113 171.569,114.13 170.718,114.108 C166.645,114.005 162.566,114.011 158.493,114.105 C157.954,114.117 156.807,114.112 156.807,114.112 C156.807,114.112 156.994,113.147 157.133,112.396 C159.814,97.918 162.493,83.438 165.083,68.943 C165.164,68.496 165.413,67.353 165.413,67.353 C165.413,67.353 167.896,67.326 167.059,67.313 C165.808,67.295 176.243,67.348 180.835,67.353 L180.805,67.328" fill="#294682"/>
    <path d="M180.835,67.353 C176.277,61.615 171.719,55.878 166.983,49.915 C172.879,49.915 178.452,49.915 184.13,49.915 C183.018,55.73 181.909,61.527 180.803,67.326 C180.805,67.328 180.835,67.353 180.835,67.353" fill="#DA393B"/>
    <path d="M127.977,77.665 C128.875,73.059 129.78,68.511 130.635,63.954 C130.723,63.484 130.898,62.649 130.898,62.649 C130.898,62.649 131.664,62.684 132.036,62.668 C134.355,62.569 136.678,62.317 138.974,62.913 C143.781,64.162 145.555,68.314 143.106,72.663 C141.376,75.735 138.513,77.196 135.198,77.609 C132.858,77.901 130.453,77.665 127.977,77.665" fill="#FFFFFE"/>
    <path d="M55.478,130.302 C54.807,130.302 54.36,129.813 54.36,129.143 C54.36,128.374 54.919,127.717 55.716,127.717 C56.4,127.717 56.875,128.206 56.875,128.919 C56.875,129.729 56.302,130.302 55.492,130.302 L55.478,130.302" fill="#294682"/>
    <path d="M59.111,130.302 C58.441,130.302 57.994,129.813 57.994,129.143 C57.994,128.374 58.553,127.717 59.349,127.717 C60.034,127.717 60.509,128.206 60.509,128.919 C60.509,129.729 59.936,130.302 59.125,130.302 L59.111,130.302" fill="#294682"/>
    <path d="M62.745,130.302 C62.075,130.302 61.627,129.813 61.627,129.143 C61.627,128.374 62.186,127.717 62.983,127.717 C63.667,127.717 64.143,128.206 64.143,128.919 C64.143,129.729 63.57,130.302 62.759,130.302 L62.745,130.302" fill="#294682"/>
    <path d="M65.191,130.162 L67.091,120.241 L69.104,120.241 L67.203,130.162 L65.191,130.162" fill="#294682"/>
    <path d="M73.576,125.216 C73.576,124.88 73.296,124.643 72.835,124.643 C71.899,124.643 71.368,125.426 71.228,126.054 C72.793,126.068 73.576,125.859 73.576,125.23 L73.576,125.216 z M74.61,129.771 C73.813,130.176 72.821,130.316 72.066,130.316 C70.11,130.316 69.104,129.212 69.104,127.424 C69.104,125.342 70.613,123.176 73.087,123.176 C74.47,123.176 75.462,123.958 75.462,125.23 C75.462,126.962 73.771,127.591 71.032,127.521 C71.032,127.717 71.102,128.025 71.242,128.22 C71.507,128.57 71.969,128.751 72.556,128.751 C73.296,128.751 73.925,128.584 74.47,128.318 L74.61,129.771" fill="#294682"/>
    <path d="M78.468,130.162 L80.354,120.241 L82.367,120.241 L81.598,124.21 L81.626,124.21 C82.199,123.581 82.911,123.176 83.806,123.176 C84.868,123.176 85.524,123.846 85.524,125.02 C85.524,125.342 85.468,125.872 85.399,126.25 L84.658,130.162 L82.646,130.162 L83.358,126.417 C83.414,126.152 83.442,125.859 83.442,125.579 C83.442,125.118 83.261,124.797 82.757,124.797 C82.045,124.797 81.332,125.663 81.081,127.032 L80.48,130.162 L78.468,130.162" fill="#294682"/>
    <path d="M91.394,124.755 C91.241,124.727 91.073,124.699 90.863,124.699 C89.564,124.699 88.614,126.292 88.614,127.563 C88.614,128.234 88.879,128.695 89.438,128.695 C90.039,128.695 90.807,128.011 91.115,126.334 L91.394,124.755 z M90.849,130.162 C90.863,129.771 90.905,129.296 90.933,128.807 L90.905,128.807 C90.262,129.939 89.382,130.316 88.586,130.316 C87.356,130.316 86.517,129.366 86.517,127.941 C86.517,125.635 88.055,123.176 91.408,123.176 C92.233,123.176 93.099,123.33 93.658,123.511 L92.973,127.088 C92.806,127.969 92.666,129.31 92.694,130.162 L90.849,130.162" fill="#294682"/>
    <path d="M99.095,129.953 C98.661,130.162 97.963,130.316 97.152,130.316 C95.462,130.316 94.273,129.282 94.273,127.508 C94.273,125.076 96.132,123.176 98.731,123.176 C99.318,123.176 99.821,123.287 100.129,123.413 L99.626,124.95 C99.388,124.853 99.109,124.783 98.703,124.783 C97.278,124.783 96.384,125.999 96.384,127.284 C96.384,128.234 96.985,128.709 97.725,128.709 C98.312,128.709 98.731,128.57 99.081,128.43 L99.095,129.953" fill="#294682"/>
    <path d="M104.671,125.216 C104.671,124.88 104.391,124.643 103.93,124.643 C102.994,124.643 102.463,125.426 102.323,126.054 C103.889,126.068 104.671,125.859 104.671,125.23 L104.671,125.216 z M105.705,129.771 C104.908,130.176 103.916,130.316 103.162,130.316 C101.205,130.316 100.199,129.212 100.199,127.424 C100.199,125.342 101.708,123.176 104.182,123.176 C105.565,123.176 106.558,123.958 106.558,125.23 C106.558,126.962 104.867,127.591 102.128,127.521 C102.128,127.717 102.198,128.025 102.337,128.22 C102.603,128.57 103.064,128.751 103.651,128.751 C104.391,128.751 105.02,128.584 105.565,128.318 L105.705,129.771" fill="#294682"/>
    <path d="M112.036,127.284 C111.994,127.508 111.953,127.759 111.967,128.039 C111.981,128.528 112.26,128.793 112.735,128.793 C113.909,128.793 114.733,127.172 114.733,125.985 C114.733,125.314 114.454,124.811 113.839,124.811 C113.112,124.811 112.399,125.537 112.162,126.725 L112.036,127.284 z M113.448,120.241 L112.637,124.154 L112.665,124.154 C113.168,123.553 113.937,123.176 114.775,123.176 C116.2,123.176 116.843,124.349 116.843,125.565 C116.843,127.773 115.39,130.316 112.316,130.316 C110.695,130.316 109.884,129.617 109.884,128.402 C109.884,127.983 109.954,127.563 110.038,127.158 L111.422,120.241 L113.448,120.241" fill="#294682"/>
    <path d="M119.96,122.435 C119.374,122.435 118.94,122.016 118.94,121.387 C118.94,120.66 119.513,120.171 120.17,120.171 C120.799,120.171 121.246,120.576 121.246,121.219 C121.246,121.988 120.659,122.435 119.975,122.435 L119.96,122.435 z M117.417,130.162 L118.717,123.33 L120.715,123.33 L119.43,130.162 L117.417,130.162" fill="#294682"/>
    <path d="M125.802,125.216 C125.802,124.88 125.523,124.643 125.061,124.643 C124.125,124.643 123.594,125.426 123.454,126.054 C125.019,126.068 125.802,125.859 125.802,125.23 L125.802,125.216 z M126.836,129.771 C126.04,130.176 125.047,130.316 124.293,130.316 C122.336,130.316 121.33,129.212 121.33,127.424 C121.33,125.342 122.84,123.176 125.313,123.176 C126.697,123.176 127.688,123.958 127.688,125.23 C127.688,126.962 125.998,127.591 123.259,127.521 C123.259,127.717 123.329,128.025 123.469,128.22 C123.734,128.57 124.195,128.751 124.782,128.751 C125.523,128.751 126.151,128.584 126.697,128.318 L126.836,129.771" fill="#294682"/>
    <path d="M128.122,130.163 L128.989,125.551 C129.157,124.685 129.268,123.944 129.352,123.33 L131.127,123.33 L131.001,124.461 L131.029,124.461 C131.672,123.581 132.524,123.176 133.418,123.176 C134.536,123.176 135.179,123.86 135.179,125.048 C135.179,125.356 135.123,125.859 135.068,126.194 L134.313,130.163 L132.301,130.163 L133.014,126.375 C133.055,126.138 133.083,125.872 133.083,125.621 C133.083,125.132 132.916,124.797 132.399,124.797 C131.742,124.797 130.987,125.621 130.694,127.13 L130.135,130.163 L128.122,130.163" fill="#294682"/>
    <path d="M143.621,124.755 C143.467,124.727 143.299,124.699 143.09,124.699 C141.79,124.699 140.84,126.292 140.84,127.563 C140.84,128.234 141.105,128.695 141.664,128.695 C142.265,128.695 143.034,128.011 143.341,126.334 L143.621,124.755 z M143.076,130.162 C143.09,129.771 143.132,129.296 143.159,128.807 L143.132,128.807 C142.489,129.939 141.608,130.316 140.812,130.316 C139.582,130.316 138.744,129.366 138.744,127.941 C138.744,125.635 140.281,123.176 143.634,123.176 C144.459,123.176 145.325,123.33 145.884,123.511 L145.2,127.088 C145.032,127.969 144.892,129.31 144.92,130.162 L143.076,130.162" fill="#294682"/>
    <g clip-path="url(#Clip_1)">
      <path d="M146.304,130.163 L148.204,120.241 L150.216,120.241 L148.316,130.163 L146.304,130.163" fill="#294682"/>
      <path d="M154.899,128.472 C155.122,128.668 155.415,128.793 155.821,128.793 C156.896,128.793 157.735,127.27 157.735,125.928 C157.735,125.384 157.497,124.811 156.855,124.811 C156.1,124.811 155.401,125.649 155.15,126.991 L154.899,128.472 z M152.02,132.929 L153.347,125.97 C153.501,125.16 153.655,123.972 153.739,123.274 L155.541,123.274 L155.415,124.322 L155.443,124.322 C156.002,123.581 156.813,123.176 157.638,123.176 C159.119,123.176 159.845,124.364 159.845,125.775 C159.845,128.137 158.266,130.316 155.877,130.316 C155.332,130.316 154.857,130.177 154.619,130.037 L154.577,130.037 L154.032,132.929 L152.02,132.929" fill="#294682"/>
    </g>
    <path d="M165.534,124.755 C165.38,124.727 165.212,124.699 165.003,124.699 C163.703,124.699 162.753,126.292 162.753,127.563 C162.753,128.234 163.019,128.695 163.578,128.695 C164.178,128.695 164.947,128.011 165.254,126.334 L165.534,124.755 z M164.989,130.162 C165.003,129.771 165.045,129.296 165.073,128.807 L165.045,128.807 C164.402,129.939 163.522,130.316 162.725,130.316 C161.496,130.316 160.657,129.366 160.657,127.941 C160.657,125.635 162.194,123.176 165.548,123.176 C166.372,123.176 167.239,123.33 167.798,123.511 L167.113,127.088 C166.945,127.969 166.806,129.31 166.833,130.162 L164.989,130.162" fill="#294682"/>
    <path d="M173.095,120.381 L171.278,122.505 L169.825,122.505 L171.138,120.381 L173.095,120.381 z M168.217,130.162 L169.517,123.33 L171.529,123.33 L170.23,130.162 L168.217,130.162" fill="#294682"/>
    <path d="M172.173,128.374 C172.564,128.57 173.305,128.849 173.961,128.849 C174.52,128.849 174.814,128.57 174.814,128.234 C174.814,127.899 174.59,127.661 173.961,127.354 C173.179,126.962 172.522,126.389 172.522,125.537 C172.522,124.112 173.766,123.176 175.526,123.176 C176.323,123.176 176.952,123.343 177.273,123.525 L176.798,124.95 C176.519,124.825 176.029,124.657 175.429,124.657 C174.897,124.657 174.548,124.88 174.548,125.258 C174.548,125.537 174.828,125.775 175.373,126.026 C176.127,126.404 176.91,126.962 176.91,127.913 C176.91,129.478 175.582,130.33 173.766,130.316 C172.913,130.302 172.089,130.079 171.683,129.786 L172.173,128.374" fill="#294682"/>
    <path d="M178.573,127.074 L179.481,120.744 L181.647,120.744 L180.138,127.074 L178.573,127.074 z M178.867,130.316 C178.196,130.316 177.748,129.827 177.748,129.171 C177.748,128.43 178.307,127.773 179.104,127.773 C179.775,127.773 180.25,128.262 180.25,128.947 C180.25,129.743 179.677,130.316 178.88,130.316 L178.867,130.316" fill="#294682"/>
    <path d="M458.484,93.896 C458.783,92.239 459.107,90.586 459.375,88.924 C460.02,84.917 457.888,81.301 453.963,80.403 C450.727,79.662 447.375,79.428 444.078,78.946 C441.08,78.508 437.981,78.387 435.118,77.502 C430.731,76.147 427.469,73.408 426.952,68.395 C426.699,65.949 427.329,63.708 428.988,61.952 C432.571,58.16 436.283,54.491 439.961,50.789 C441.183,49.559 443.1,49.661 444.336,50.886 C448.039,54.557 451.783,58.185 455.478,61.863 C457.925,64.3 460.291,66.817 462.734,69.257 C465.024,71.544 467.429,73.72 469.659,76.063 C470.635,77.089 471.974,77.878 472.197,79.55 C472.494,81.787 470.815,82.762 469.555,83.985 C467.021,86.447 464.429,88.849 461.855,91.268 C460.829,92.232 459.786,93.179 458.751,94.134 C458.661,94.054 458.572,93.976 458.484,93.896" fill="#BE2352"/>
    <path d="M425.817,72.12 C425.562,73.457 425.287,74.496 425.181,75.552 C425.033,77.017 424.928,78.496 424.951,79.966 C425.008,83.564 428.048,85.633 430.931,86.417 C434.882,87.49 438.939,87.659 443.002,87.785 C446.529,87.893 449.835,88.829 452.798,90.773 C455.703,92.679 457.318,95.513 457.489,98.887 C457.595,100.979 456.585,103.013 455.143,104.632 C453.472,106.507 451.702,108.294 449.937,110.082 C448.024,112.021 446.075,113.923 444.127,115.827 C443.358,116.58 441.108,116.678 440.327,115.921 C438.21,113.874 436.143,111.775 434.061,109.691 C432.365,107.993 430.675,106.288 428.983,104.585 C426.463,102.049 423.954,99.501 421.419,96.98 C419.033,94.606 416.616,92.265 414.225,89.896 C413.629,89.306 413.038,88.698 412.529,88.033 C411.806,87.091 411.827,85.701 412.68,84.741 C413.739,83.549 414.909,82.453 416.065,81.351 C419.228,78.338 422.408,75.344 425.817,72.12" fill="#0078BB"/>
    <path d="M557.581,83.113 C557.581,78.793 557.584,74.472 557.581,70.152 C557.578,68.219 558.011,67.684 559.925,67.334 C560.715,67.19 561.507,67.034 562.305,66.951 C565.742,66.596 568.187,68.138 570.29,70.772 C572.464,73.496 574.946,75.973 577.29,78.562 C578.306,79.683 579.271,80.856 580.348,81.913 C580.703,82.262 581.472,82.599 581.817,82.439 C582.193,82.264 582.48,81.507 582.488,80.998 C582.544,77.441 582.512,73.883 582.521,70.325 C582.525,68.122 582.962,67.75 585.081,67.314 C586.74,66.972 588.318,66.993 589.966,67.34 C591.861,67.739 592.434,68.286 592.433,70.214 C592.431,75.72 592.421,81.226 592.419,86.732 C592.417,89.782 592.428,92.832 592.428,95.882 C592.428,98.136 591.774,99.058 589.519,99.206 C587.694,99.325 585.828,99.09 584.004,98.839 C583.372,98.753 582.689,98.26 582.237,97.764 C578.13,93.251 574.069,88.696 569.994,84.154 C569.91,84.06 569.845,83.926 569.74,83.874 C569.24,83.633 568.522,83.093 568.269,83.257 C567.851,83.528 567.528,84.255 567.519,84.795 C567.454,88.522 567.482,92.25 567.477,95.977 C567.473,98.151 567.264,98.722 565.138,99.024 C563.233,99.295 561.234,99.005 559.286,98.841 C557.795,98.716 557.584,97.567 557.588,96.329 C557.6,92.728 557.597,89.128 557.599,85.527 C557.6,84.722 557.6,83.918 557.6,83.113 z" fill="#0078BB"/>
    <path d="M496.868,99.891 C490.149,99.688 485.088,98.777 480.293,96.578 C477.913,95.486 477.594,93.471 479.562,91.719 C479.719,91.579 479.869,91.427 480.01,91.271 C481.841,89.235 483.065,88.963 485.529,90.176 C489.017,91.893 492.693,92.742 496.571,92.578 C497.604,92.535 498.687,92.319 499.626,91.907 C500.152,91.676 500.748,90.869 500.734,90.337 C500.719,89.735 500.17,88.788 499.651,88.621 C497.208,87.838 494.72,87.154 492.205,86.655 C488.923,86.005 485.655,85.366 482.681,83.753 C477.19,80.774 477.452,73.817 482.061,70.337 C485.91,67.43 490.433,66.82 495.037,67.001 C498.18,67.125 501.319,67.691 504.426,68.251 C505.815,68.501 507.151,69.148 508.453,69.745 C509.56,70.253 509.868,72.285 508.993,73.449 C508.29,74.384 507.486,75.285 506.574,76.011 C505.413,76.935 504.059,76.627 502.84,76.047 C499.386,74.407 495.773,73.825 491.989,74.267 C490.876,74.397 489.855,75.381 489.879,76.319 C489.908,77.469 490.685,78.071 491.692,78.306 C494.772,79.027 497.871,79.673 500.956,80.375 C504.012,81.07 506.927,82.018 509.562,83.875 C511.453,85.207 512.523,89.253 511.843,91.6 C510.712,95.492 507.796,97.481 504.258,98.523 C501.41,99.362 498.393,99.622 496.868,99.891" fill="#0078BB"/>
    <path d="M541.153,77.816 C541.153,75.189 541.143,72.562 541.157,69.935 C541.166,68.24 541.693,67.756 543.319,67.354 C545.353,66.851 547.334,66.911 549.348,67.395 C550.74,67.729 551.366,68.299 551.359,69.734 C551.33,75.832 551.575,81.957 551.081,88.02 C550.662,93.165 547.438,96.87 542.251,98.501 C539.072,99.5 535.75,100.127 532.377,99.753 C528.677,99.344 524.961,98.808 521.889,96.457 C518.827,94.113 517.229,90.829 517.092,87.065 C516.88,81.268 516.989,75.459 517.003,69.655 C517.006,68.473 517.633,67.715 518.858,67.419 C520.958,66.913 523.033,66.862 525.139,67.378 C526.75,67.772 527.196,68.196 527.204,69.903 C527.226,74.775 527.134,79.648 527.245,84.518 C527.278,85.995 527.532,87.612 528.195,88.902 C529.96,92.331 535.041,92.601 537.742,91.191 C540.194,89.913 541.155,87.837 541.15,85.188 C541.146,82.73 541.149,80.273 541.149,77.816 z" fill="#0078BB"/>
    <path d="M616.208,86.694 L616.208,86.706 C617.055,86.706 617.911,86.787 618.746,86.683 C619.54,86.585 620.16,86.098 619.779,85.2 C618.956,83.259 618.073,81.341 617.146,79.447 C616.711,78.557 615.712,78.543 615.277,79.418 C614.34,81.306 613.449,83.218 612.61,85.151 C612.252,85.976 612.614,86.602 613.541,86.679 C614.424,86.752 615.318,86.694 616.208,86.694 M630.422,99.364 C629.956,99.344 629.491,99.308 629.025,99.303 C626.909,99.279 625.383,98.438 624.767,96.287 C624.652,95.884 624.443,95.509 624.286,95.118 C623.723,93.722 622.746,93.228 621.205,93.277 C617.609,93.391 614.006,93.351 610.408,93.298 C609.23,93.281 608.645,93.791 608.256,94.832 C607.86,95.893 607.439,96.98 606.808,97.904 C606.449,98.429 605.688,98.805 605.037,98.978 C602.924,99.54 600.771,99.62 598.683,98.86 C597.142,98.299 596.703,97.059 597.4,95.627 C599.378,91.567 601.325,87.492 603.331,83.447 C605.577,78.918 607.871,74.414 610.151,69.902 C611.621,66.994 613.359,66.444 617.242,66.623 C620.628,66.778 622.157,68.486 623.358,71.408 C624.957,75.301 627.041,78.995 628.914,82.776 C630.933,86.857 632.958,90.936 634.962,95.024 C636.093,97.33 635.252,98.9 632.704,99.239 C631.951,99.339 631.183,99.326 630.422,99.364" fill="#0078BB"/>
    <path d="M647.112,67.322 C651.432,67.322 655.753,67.319 660.074,67.323 C662.642,67.325 663.292,67.968 663.342,70.557 C663.354,71.149 663.352,71.747 663.29,72.334 C663.13,73.85 662.318,74.558 660.77,74.571 C658.568,74.59 656.365,74.609 654.163,74.612 C652.421,74.615 651.955,75.045 651.951,76.755 C651.938,82.939 651.861,89.125 651.949,95.308 C652,98.827 651.15,98.773 648.442,99.182 C646.867,99.42 645.154,99.09 643.561,98.747 C642.325,98.48 641.838,97.434 641.845,96.119 C641.878,89.723 641.87,83.327 641.861,76.931 C641.859,74.782 641.692,74.629 639.537,74.621 C637.546,74.614 635.555,74.632 633.565,74.615 C631.716,74.6 630.998,74.067 630.766,72.238 C630.632,71.169 630.71,70.038 630.9,68.972 C631.133,67.662 632.167,67.309 633.387,67.315 C636.565,67.33 639.741,67.324 642.918,67.326 C644.316,67.327 645.714,67.326 647.112,67.326 z" fill="#0078BB"/>
    <text transform="matrix(1, 0, 0, 1, 554.81, 136.588)">
      <tspan x="-104.328" y="-1.412" font-family="NunitoSans-Regular" font-size="12" fill="#000000">Resolución 034-005-0012054/SUNAT</tspan>
    </text>
    <text transform="matrix(1, 0, 0, 1, 131.651, 31.588)">
      <tspan x="-29.34" y="-1.412" font-family="NunitoSans-Regular" font-size="12" fill="#000000">ECUADOR</tspan>
    </text>
    <text transform="matrix(1, 0, 0, 1, 554.809, 31.588)">
      <tspan x="-15.822" y="-1.412" font-family="NunitoSans-Regular" font-size="12" fill="#000000">PERÚ</tspan>
    </text>
  </g>
</svg>
